<?xml version="1.0" standalone="no"?>
<!DOCTYPE svg PUBLIC "-//W3C//DTD SVG 20010904//EN"
 "http://www.w3.org/TR/2001/REC-SVG-20010904/DTD/svg10.dtd">
<svg version="1.0" xmlns="http://www.w3.org/2000/svg"
 width="512.000000pt" height="512.000000pt" viewBox="0 0 512.000000 512.000000"
 preserveAspectRatio="xMidYMid meet">
<metadata>
Created by potrace 1.14, written by Peter Selinger 2001-2017
</metadata>
<g transform="translate(0.000000,512.000000) scale(0.100000,-0.100000)"
fill="#000000" stroke="none">
<path d="M1530 4875 c-8 -2 -49 -9 -90 -15 -189 -31 -368 -123 -520 -267 -212
-201 -314 -422 -327 -710 -15 -326 82 -587 301 -804 211 -211 482 -311 800
-296 139 6 228 23 346 66 212 78 399 250 509 469 57 113 131 365 131 446 l0
24 -162 6 c-90 3 -229 7 -309 10 l-145 4 -12 -69 c-42 -244 -217 -384 -457
-366 -104 8 -175 39 -249 107 -73 69 -110 131 -132 226 -19 80 -14 200 10 280
37 119 139 230 253 275 47 19 78 23 163 23 93 1 111 -2 161 -25 100 -47 194
-154 229 -258 14 -42 14 -43 54 -37 23 3 166 13 319 22 l278 18 -7 30 c-27
127 -110 316 -187 430 -130 192 -354 338 -602 392 -64 14 -319 28 -355 19z"/>
<path d="M3540 4865 c-303 -65 -508 -246 -583 -514 -21 -74 -21 -95 -25 -798
l-3 -723 296 0 295 0 0 649 c0 399 4 669 10 702 15 76 51 111 122 116 99 7
152 -41 145 -130 -6 -72 -60 -117 -142 -117 l-35 0 0 -266 0 -267 133 6 c228
10 361 59 478 176 213 213 240 604 61 868 -89 131 -251 247 -402 289 -79 21
-270 27 -350 9z"/>
<path d="M1720 2355 c-210 -48 -379 -223 -425 -440 -12 -58 -15 -201 -15 -832
l0 -763 295 0 295 0 0 643 c0 353 5 671 10 707 7 51 15 70 35 88 32 27 65 28
96 3 l24 -19 3 -711 3 -711 299 0 300 0 2 706 3 706 28 24 c35 30 78 31 103 3
18 -20 19 -49 22 -730 l3 -709 299 0 300 0 0 708 c0 702 -5 832 -35 947 -39
148 -141 282 -258 338 -153 74 -377 75 -529 3 -63 -30 -153 -107 -203 -176
l-37 -50 -30 42 c-74 105 -159 172 -264 209 -78 27 -235 34 -324 14z"/>
<path d="M4300 2354 c-36 -7 -103 -32 -150 -55 -69 -34 -102 -59 -176 -133
-74 -74 -99 -107 -132 -176 -57 -116 -72 -183 -72 -316 0 -164 29 -268 130
-468 89 -175 96 -209 57 -267 -12 -19 -42 -44 -67 -57 -65 -33 -132 -26 -232
26 -5 2 -8 -127 -8 -287 l0 -290 83 -27 c71 -24 98 -28 207 -28 89 0 144 5
190 18 208 57 400 230 474 428 78 206 50 421 -85 664 -74 131 -89 172 -89 234
0 52 25 99 73 134 30 22 105 28 160 13 l27 -7 0 284 0 284 -32 11 c-105 33
-248 39 -358 15z"/>
<path d="M320 1320 l0 -1000 300 0 300 0 0 1000 0 1000 -300 0 -300 0 0 -1000z"/>
</g>
</svg>
